<?xml version="1.0" standalone="no"?>
<!DOCTYPE svg PUBLIC "-//W3C//DTD SVG 20010904//EN"
 "http://www.w3.org/TR/2001/REC-SVG-20010904/DTD/svg10.dtd">
<svg version="1.0" xmlns="http://www.w3.org/2000/svg"
 width="1080.000000pt" height="1080.000000pt" viewBox="0 0 1080.000000 1080.000000"
 preserveAspectRatio="xMidYMid meet">
<metadata>
Created by potrace 1.14, written by Peter Selinger 2001-2017
</metadata>
<g transform="translate(0.000000,1080.000000) scale(0.100000,-0.100000)"
fill="#000000" stroke="none">
<path d="M5055 8813 c-148 -21 -399 -87 -490 -127 -16 -8 -59 -26 -95 -42 -36
-16 -90 -43 -120 -61 -30 -18 -61 -33 -67 -33 -7 0 -13 -4 -13 -9 0 -5 -17
-17 -37 -26 -20 -10 -48 -28 -62 -41 -14 -13 -31 -24 -38 -24 -6 0 -13 -3 -15
-7 -1 -5 -32 -30 -66 -57 -35 -27 -74 -58 -87 -70 -79 -74 -184 -180 -210
-212 -16 -20 -39 -48 -50 -62 -11 -13 -30 -35 -42 -49 -13 -13 -23 -26 -23
-29 0 -3 -6 -12 -12 -19 -22 -24 -32 -39 -52 -75 -11 -19 -22 -37 -25 -40 -21
-18 -132 -245 -177 -362 -69 -178 -127 -458 -128 -623 l-1 -50 405 0 404 0 12
90 c12 99 33 183 70 290 22 63 81 192 94 205 12 12 70 101 70 108 0 4 9 13 20
20 11 7 20 16 20 20 0 5 18 28 40 52 22 24 40 47 40 52 0 4 5 8 11 8 6 0 33
21 61 48 28 26 59 55 69 65 11 9 24 17 29 17 6 0 10 4 10 9 0 5 8 12 18 15 10
4 27 14 38 24 41 37 217 116 329 148 144 42 467 60 582 33 120 -28 213 -55
274 -80 69 -28 212 -107 247 -136 11 -10 39 -34 63 -53 60 -49 159 -144 159
-153 0 -4 9 -17 20 -29 12 -13 27 -30 33 -38 21 -25 97 -146 97 -154 0 -4 6
-14 14 -22 19 -18 91 -205 117 -302 11 -42 23 -111 27 -152 l7 -75 405 0 405
0 -1 102 c-1 56 -6 122 -12 145 -6 24 -18 79 -27 123 -9 44 -28 116 -42 160
-24 77 -30 95 -58 160 -7 17 -19 46 -26 65 -20 55 -106 225 -121 241 -7 8 -24
34 -37 59 -23 43 -52 84 -86 123 -8 9 -15 19 -15 22 0 7 -17 28 -52 67 -16 16
-28 32 -28 35 0 11 -218 223 -229 223 -6 0 -11 4 -11 8 0 7 -34 37 -115 100
-36 28 -187 122 -220 138 -22 10 -46 24 -53 30 -6 7 -22 16 -35 20 -12 4 -55
22 -95 40 -92 43 -233 86 -387 121 -113 25 -137 26 -410 28 -159 2 -303 1
-320 -2z"/>
<path d="M5241 7280 c-68 -15 -171 -51 -171 -60 0 -5 -8 -11 -18 -14 -19 -7
-162 -138 -162 -149 0 -4 -8 -16 -17 -27 -43 -50 -83 -189 -83 -291 0 -81 29
-215 55 -252 8 -12 15 -27 15 -35 0 -15 169 -182 184 -182 3 0 27 -13 53 -28
55 -32 179 -62 256 -62 29 0 79 7 111 15 65 17 206 83 206 96 0 5 6 9 13 9 26
0 106 102 151 193 71 144 83 252 44 380 -31 103 -116 241 -180 292 -39 32
-142 88 -184 101 -60 19 -214 26 -273 14z"/>
<path d="M3895 6215 c-38 -14 -71 -25 -72 -25 -6 0 -92 -91 -110 -116 -32 -45
-56 -148 -47 -208 10 -78 67 -213 140 -332 10 -18 35 -58 54 -90 18 -33 39
-64 45 -70 6 -7 31 -44 56 -83 24 -40 56 -91 71 -114 15 -23 31 -49 35 -57 4
-8 12 -21 19 -27 7 -7 22 -29 35 -50 12 -21 55 -88 96 -149 40 -62 73 -117 73
-123 0 -6 5 -11 10 -11 6 0 10 -7 10 -15 0 -8 4 -15 9 -15 5 0 14 -15 22 -32
7 -18 16 -35 20 -38 13 -10 129 -189 129 -200 0 -5 4 -10 8 -10 5 0 21 -21 36
-47 37 -66 50 -87 57 -93 4 -3 16 -21 27 -41 42 -75 47 -84 58 -94 13 -12 84
-121 84 -129 0 -3 16 -26 35 -52 19 -25 38 -56 41 -70 3 -13 9 -24 13 -24 3 0
22 -23 41 -51 l35 -52 5 -756 5 -756 25 -68 c16 -45 38 -82 65 -110 83 -85
121 -106 236 -132 74 -16 79 -16 167 5 51 12 92 26 92 31 0 5 6 9 13 9 21 0
101 82 135 137 66 110 66 109 72 918 l5 730 48 72 c26 40 47 76 47 82 0 5 3
11 8 13 4 2 30 37 57 78 68 102 74 113 82 130 4 8 9 17 13 20 5 4 37 52 75
111 12 19 101 154 127 191 10 15 18 32 18 38 0 5 4 10 8 10 5 0 17 16 28 35
10 19 21 35 24 35 3 0 16 21 30 48 13 26 27 49 30 52 9 7 115 171 130 200 7
14 16 27 20 30 12 9 70 101 70 111 0 5 5 9 10 9 6 0 10 5 10 10 0 6 5 16 10
23 6 7 35 50 65 97 30 47 59 90 65 97 5 7 10 17 10 23 0 5 4 10 9 10 5 0 13
10 17 22 3 12 15 31 25 42 11 11 19 26 19 33 0 7 5 13 10 13 6 0 10 7 10 15 0
8 5 15 10 15 6 0 10 7 10 15 0 8 4 15 8 15 5 0 21 24 36 53 33 63 49 90 57 97
4 3 10 16 14 30 4 14 12 27 16 31 13 8 49 157 49 204 0 97 -55 193 -160 278
-80 66 -302 61 -395 -8 -28 -21 -90 -81 -115 -112 -31 -39 -117 -170 -141
-215 -13 -27 -27 -48 -30 -48 -4 0 -12 -13 -19 -30 -7 -16 -16 -30 -21 -30 -5
0 -9 -6 -9 -14 0 -8 -27 -55 -60 -105 -33 -50 -60 -96 -60 -101 0 -6 -4 -10
-8 -10 -5 0 -18 -19 -31 -42 -24 -47 -174 -284 -194 -308 -7 -9 -16 -23 -19
-32 -4 -9 -31 -54 -61 -101 -30 -46 -58 -94 -62 -106 -3 -11 -12 -27 -18 -33
-18 -19 -150 -228 -163 -258 -6 -14 -18 -31 -27 -39 -10 -7 -17 -19 -17 -26 0
-19 -44 -65 -62 -65 -9 0 -30 17 -45 38 -15 20 -30 39 -33 42 -3 3 -16 26 -30
53 -13 26 -28 47 -32 47 -3 0 -10 10 -14 22 -3 12 -23 47 -43 77 -19 31 -41
65 -47 76 -6 11 -20 36 -32 55 -12 19 -29 49 -38 65 -9 17 -23 34 -30 38 -8 4
-14 14 -14 21 0 6 -12 28 -26 47 -14 19 -34 52 -44 74 -10 22 -27 51 -39 64
-11 13 -21 30 -21 38 0 7 -4 13 -8 13 -5 0 -23 28 -41 63 -19 34 -42 70 -52
80 -11 10 -19 23 -19 28 0 6 -17 36 -38 67 -44 67 -55 85 -82 133 -10 21 -25
43 -32 50 -8 8 -22 33 -32 57 -11 23 -23 42 -28 42 -4 0 -15 18 -24 40 -9 22
-19 40 -23 40 -3 0 -17 20 -30 45 -13 25 -28 45 -32 45 -5 0 -9 6 -9 13 0 8
-18 33 -40 56 -22 23 -40 45 -40 49 0 4 -11 20 -25 36 -14 16 -25 33 -25 38 0
4 -6 8 -14 8 -7 0 -19 7 -26 15 -28 34 -75 48 -175 52 -88 3 -109 1 -170 -22z"/>
</g>
</svg>
